<svg width="408" height="376" viewBox="0 0 408 376" fill="none" xmlns="http://www.w3.org/2000/svg">
<g clip-path="url(#clip0)">
<path d="M24.63 129.07C0.689971 91.9999 13.55 41.8499 53.03 16.3599C92.87 -9.35008 143.87 -0.440086 167.79 36.6399C180.87 56.8999 182.87 81.1299 175.5 103.1L177.63 101.71C184.39 79.7099 182.05 55.7099 169.16 35.7099C144.78 -2.00008 93 -11.3901 52.15 14.9999C11.64 41.1399 -0.910029 92.5399 23.25 130C29.16 139.145 36.9662 146.914 46.14 152.78L47.63 151.78C38.3804 146.001 30.5256 138.245 24.63 129.07Z" fill="white"/>
<path d="M60.2899 28.7599C51.7099 32.9999 43.8699 39.8499 37.4199 49.5199C35.5999 52.7799 35.5099 55.9999 37.8699 57.1999C39.7199 58.3799 42.2599 57.6599 43.9799 55.3799C49.6099 46.3799 56.4399 39.9299 63.9799 36.0399C66.0799 34.7799 67.5299 32.7199 66.5399 30.3999C65.5499 28.0799 63.1499 27.3299 60.2899 28.7599Z" fill="white"/>
<path d="M399.41 244.74C398.738 244.671 398.06 244.729 397.41 244.91C394.48 245.66 391.27 248.64 388.84 252.83C385.84 258 383.71 264.63 381.51 271.95C377.39 285.41 373.09 300.39 361.51 305.95C362.221 306.319 362.988 306.569 363.78 306.69C368.88 307.27 373.64 304.69 378.57 297.69C386.36 289.63 404 270.69 405.57 257.09C406.38 250 403.87 245.25 399.41 244.74Z" fill="white"/>
<path d="M386.87 251.93C389.58 247.56 392.68 244.47 395.87 243.24C394.978 242.932 394.05 242.737 393.11 242.66C387 241.96 382.68 246.66 380.41 251.54C378.14 256.42 377.3 260.8 376.04 265.82C374.37 272.942 372.195 279.937 369.53 286.75C367.33 291.75 362.82 297.75 356.53 302.65C357.43 303.4 358.34 304.07 359.21 304.65C377.17 297.88 378.01 267 386.87 251.93Z" fill="white"/>
<path d="M355.04 301.36C360.13 297.19 365.26 291.52 367.57 285.84C371.98 275.13 373.28 267.84 375.03 261.04L375.49 259.22C374.671 259.903 373.798 260.518 372.88 261.06V260.3C356.34 224.25 301.58 205.16 263.33 208.59L263.5 209.94C301.69 206.61 354.91 225.19 371.5 260.49C370.73 261.21 369.96 261.97 369.22 262.76C361.5 270.99 355.7 282.54 352.22 294.07C349.86 299.64 346.5 302.01 342.22 300.15C332.98 296.69 326.77 290.83 319.62 284.15C316.83 281.42 314.01 279.04 310.88 276.28H310.54C306.94 276.52 301.95 275.68 297.75 274.59C288.06 256.75 276.75 245.96 265.3 244.66C260.507 244.209 255.686 244.125 250.88 244.41L250.31 245.8C255.254 245.479 260.216 245.55 265.15 246.01C276.42 247.29 287.62 258.27 297.22 276.3C304.37 289.76 310.63 307.14 315.39 327.38C314.496 327.788 313.633 328.263 312.81 328.8C301.68 335.93 294.7 353.93 283.43 357.45C281.144 358.326 278.742 358.862 276.3 359.04C274.377 359.164 272.447 358.948 270.6 358.4C264.6 353.93 236.53 310.16 235.17 297.97L233.81 297.81C234.319 301.018 235.279 304.139 236.66 307.08C215.44 327.2 149.25 332.86 122.22 302.66C121.64 302.77 121.09 302.83 120.55 302.89C147.55 334.07 214.12 329.03 237.24 308.42C245.24 326.6 264.9 356.07 269.76 359.68C271.907 360.565 274.253 360.852 276.55 360.51C277.19 360.46 277.83 360.37 278.48 360.26C278.745 361.451 279.079 362.627 279.48 363.78C299.69 360.14 308.81 344.51 316.27 331.95C317.023 330.617 317.76 329.347 318.48 328.14C318.84 327.52 319.2 326.92 319.57 326.35L316.73 327.35C311.99 307.2 305.82 289.88 298.73 276.35C302.53 277.08 306.97 277.81 310.41 277.58C321.06 286.71 328.88 296.58 341.41 301.4C344.89 302.7 347.84 302.14 350.24 299.64C350.763 299.111 351.232 298.531 351.64 297.91C352.68 299.11 353.87 300.28 355.04 301.36Z" fill="white"/>
<path d="M348.37 326.38C347.579 325.23 346.539 324.273 345.327 323.58C344.115 322.888 342.762 322.477 341.37 322.38C333.23 321.45 328.18 329.48 323.21 339.92C317.95 351.92 305.96 370.2 292.86 373.54C301.31 373.68 313.35 366.54 328.61 352.92C340.04 343.2 347.42 335.79 348.3 327.98C348.35 327.441 348.35 326.899 348.3 326.36C348.3 326.36 348.38 326.38 348.37 326.38Z" fill="white"/>
<path d="M280.29 365.81C282.03 369.58 284.48 371.65 287.29 371.97C301.2 373.55 315.29 352.79 321.29 339.04C326.29 328.59 332.13 319.29 341.64 320.38C343.578 320.564 345.441 321.228 347.06 322.31C345.922 320.529 344.389 319.033 342.58 317.939C340.772 316.845 338.736 316.181 336.63 316C330.04 315.25 326.05 319.69 321.08 327.9C320.16 329.41 319.21 331.06 318.2 332.82C310.78 345.33 300.93 362.08 280.29 365.81Z" fill="white"/>
<path d="M71.4599 157.74L78.2599 165.08C79.7443 162.622 81.4159 160.281 83.2599 158.08C78.9099 157.08 74.5299 154.16 69.9199 149.55L68.7299 141.63C59.7401 145.529 51.2441 150.48 43.4199 156.38L46.5899 158.38L71.4599 157.74Z" fill="#FBD965"/>
<path d="M165.17 266.43L154.75 271.88L145.75 265.63L104.87 263.56L92.07 243.26L91.38 242.16L90.96 241.48C85.3023 250.182 77.69 257.441 68.73 262.68L68.84 262.86C77.61 277.93 100.36 299.46 118.2 301.49C129.22 302.76 155.44 285 165.17 266.43Z" fill="#FBD965"/>
<path d="M103.87 197.93C98.7599 202.27 92.0999 204.93 86.1099 204.63C77.6199 204.17 72.1099 198.79 71.2199 190.47C54.2199 197.7 44.4799 204.72 33.9099 215.29L33.0599 214.44C41.0985 206.026 50.5478 199.085 60.9799 193.93L39.3799 159.58C17.0899 177.84 2.37994 202.8 2.21994 226.41C2.02994 246.33 13.0699 261 31.0199 266.48C40.8299 269.42 53.0199 268.59 64.8499 263.48C89.4799 251.21 101.66 225.44 103.87 197.93Z" fill="#FBD965"/>
<path d="M67.21 124.24L71.07 149C76.19 154.13 80.54 156.41 84.13 157.11C86.1322 154.82 88.3232 152.703 90.68 150.78C80.49 146.24 72.01 137.58 67.21 124.24Z" fill="#FAE5DA"/>
<path d="M110.63 155.08L111.34 154.52C109.443 154.595 107.543 154.565 105.65 154.43C103.716 155.325 101.943 156.531 100.4 158C102.534 157.312 104.743 156.886 106.98 156.73C108.17 156.26 109.38 155.73 110.63 155.13V155.08Z" fill="#FAE5DA"/>
<path d="M126.2 151.91C121.381 153.423 116.386 154.301 111.34 154.52L110.63 155.08C109.38 155.69 108.17 156.21 106.98 156.68C107.62 156.68 108.25 156.68 108.85 156.68C114.6 156.99 117.53 160.12 118.36 165.13C120.36 166.13 121.96 168.07 122.17 171.43L137.17 168L165.32 180.4L197.32 152.71L209.66 151.79C221.35 139.86 233.94 124.33 238.98 113.43C239.362 112.109 239.457 110.721 239.26 109.36C234.02 111.6 229.06 112.21 224.63 111.28C220.202 110.321 216.152 108.085 212.98 104.85C211.034 102.992 209.599 100.665 208.813 98.0923C208.027 95.5197 207.915 92.7879 208.49 90.1599C208.654 89.3793 208.871 88.6109 209.14 87.8599C193.73 90.9799 166.82 109.66 152.62 122.15C151.05 134.57 141.38 147.27 126.2 151.91Z" fill="#FBD965"/>
<path d="M252.19 98.66C259.88 93.06 269.19 88.17 266.78 84.4C265.41 82.3 259.84 84.74 255.64 87.47L250.47 91.47L250.05 91.75L248.67 91.45C247.705 89.1357 246.427 86.9653 244.87 85C243.037 82.5846 240.631 80.6635 237.87 79.41L238.16 78.03C238.55 78.19 238.93 78.38 239.32 78.58L252.99 65.97C254.05 65.03 255.02 64.19 255.9 63.45C256.152 63.0735 256.305 62.6388 256.342 62.1871C256.379 61.7354 256.3 61.2816 256.113 60.8689C255.926 60.4561 255.636 60.0981 255.271 59.8288C254.907 59.5595 254.479 59.3878 254.03 59.33C252.31 58.96 249.52 60.19 246.03 63.06L226.75 78.84C226.242 80.9154 225.573 82.9483 224.75 84.92L223.36 84.63C224.238 82.4235 224.96 80.1579 225.52 77.85L225.59 77.51C227.05 70.58 226.28 65.73 223.5 65.14C221.77 64.77 220.59 65.24 220.22 66.97C218.22 74.51 215.59 78.65 213.32 82.51C211.707 84.9303 210.538 87.6191 209.87 90.45C209.347 92.8082 209.449 95.2623 210.166 97.5689C210.884 99.8755 212.191 101.955 213.96 103.6C216.837 106.802 220.658 109.005 224.87 109.89C233.87 111.79 243.23 106.89 252.19 98.66Z" fill="#FAE5DA"/>
<path d="M246.94 85.2198C248.044 86.7198 249.005 88.3202 249.81 89.9998L260 82.2398C268.33 75.3098 270 72.4198 268.58 70.6698C266.46 68.7698 264.43 69.7998 259.12 74.4598L246.94 85.2198Z" fill="#FAE5DA"/>
<path d="M254.2 66.92L240.71 79.35C242.7 80.6092 244.476 82.1791 245.97 84L258.79 72.6C261.02 70.54 263.27 68.48 265.16 66.36C267.9 63.68 267.02 60.97 264.6 60.46C262.54 60.02 260.36 61.39 256.45 64.89C255.75 65.49 255.01 66.17 254.2 66.92Z" fill="#FAE5DA"/>
<path d="M213.63 202.86L244.13 193.81L239.78 171.6L207.44 182.68L213.63 202.86Z" fill="white"/>
<path d="M200.19 206.86L171.19 215.03L177.44 259.44L201.38 270.59L224.29 244.37L219.59 229.06L209.59 231.27L200.19 206.86ZM192.55 244.4L185.55 222.76L194.74 219.62L201.65 241.62L192.55 244.4Z" fill="white"/>
<path d="M221.54 228.62L226.1 243.47L235.25 244.14L229.57 226.84L221.54 228.62Z" fill="white"/>
<path d="M248.68 245.13L248.29 245.1L248.68 245.13L262.42 212.64L252.46 133.61L237.7 150.55L251.86 222.88L251.81 222.9L254.01 232.53L248.68 245.13Z" fill="white"/>
<path d="M193.69 187.38L200.19 206.86L211.72 203.43L205.54 183.32L193.69 187.38Z" fill="white"/>
<path d="M144.65 222.51L142.94 222.99L146.67 264.6L155.07 270.4L175.39 259.27L169.77 219.32C167.678 226.529 164.121 233.229 159.32 239C153.382 234.533 148.395 228.927 144.65 222.51Z" fill="white"/>
<path d="M142.53 218.32L142.8 221.42L143.88 221.12C143.38 220.17 142.93 219.24 142.53 218.32Z" fill="white"/>
<path d="M122.17 173.26C123.332 173.871 124.282 174.818 124.898 175.978C125.513 177.137 125.765 178.455 125.62 179.76C125.3 185.59 119.2 190.76 109.96 190.68C109.111 192.188 108.105 193.602 106.96 194.9L110.51 204.3L126.44 200.9L135.94 225L135.41 223.53L140.87 222L136.19 169.65L122.19 172.85C122.17 173 122.18 173.11 122.17 173.26Z" fill="white"/>
<path d="M120.34 245.31L114.5 226.27L108.25 228.35L114.14 247.04L120.34 245.31Z" fill="white"/>
<path d="M149.67 210.37C149.95 213.93 153.1 217.13 157.09 216.19C158.799 215.914 160.332 214.977 161.357 213.582C162.382 212.186 162.818 210.444 162.57 208.73C162.331 207.072 161.452 205.573 160.121 204.556C158.79 203.539 157.113 203.084 155.45 203.29C151.55 203.53 149.39 206.81 149.67 210.37Z" fill="white"/>
<path d="M127.18 227.45L121.59 215.14L107.04 219L107.63 226.94L115.44 224.27L122.35 246.27L113.2 249.07L108.1 233.2L109.59 253.15L107.59 253.29L105.06 219.54L100.67 220.7C98.5696 227.481 95.6124 233.967 91.8699 240L105.87 262.25L144.57 264.09L143.76 255L135.76 257.43L128.87 235.78L138.07 232.64L143.26 249.16L140.96 223.54L135.96 224.96L127.18 227.45Z" fill="white"/>
<path d="M62.4399 193.2C65.1399 191.85 68.0399 190.51 71.1699 189.14C71.1699 188.39 71.1699 187.63 71.1699 186.84C71.6807 179.551 73.8821 172.481 77.5999 166.19L71.1299 159.19L46.2699 159.88L38.1699 154.61L62.4399 193.2Z" fill="white"/>
<path d="M130.9 236.73L136.79 255.42L142.99 253.69L137.15 234.65L130.9 236.73Z" fill="white"/>
<path d="M193.85 221.62L187.6 223.7L193.49 242.4L199.69 240.67L193.85 221.62Z" fill="white"/>
<path d="M198.71 154.26L206.98 181.19L239.48 170.05L235.85 151.5L198.71 154.26Z" fill="white"/>
<path d="M169.27 201.46C170.321 203.245 170.982 205.231 171.21 207.29C171.384 209.368 171.313 211.458 171 213.52L198.19 205.91L191.68 186.44L205.09 181.84L196.87 155.05L166.46 181.38L169.27 201.46Z" fill="white"/>
<path d="M141.23 203.87C142.93 199.37 147.02 195.87 153.97 195C159.58 194.34 163.9 195.8 166.83 198.46L164.44 181.46L138.21 170.06L141.23 203.87Z" fill="white"/>
<path d="M213.63 202.86L221.54 228.62L229.57 226.84L235.25 244.14L235.26 244.19L248.29 245.1L248.68 245.13L254.01 232.53L251.81 222.9L249.9 223.27L244.13 193.81L213.63 202.86Z" fill="#48658A"/>
<path d="M200.19 206.86L209.63 231.27L219.59 229.06L211.72 203.43L200.19 206.86Z" fill="#48658A"/>
<path d="M207.44 182.68L239.78 171.6L239.48 170.05L206.98 181.19L207.44 182.68Z" fill="#48658A"/>
<path d="M191.68 186.44L198.19 205.91L171 213.52C171 213.52 171 213.6 171 213.63L171.19 215.03L200.19 206.86L193.69 187.38L205.54 183.32L205.09 181.84L191.68 186.44Z" fill="#48658A"/>
<path d="M194.79 219.62L185.6 222.76L192.6 244.4L201.75 241.61L194.79 219.62ZM193.49 242.4L187.6 223.7L193.85 221.62L199.69 240.62L193.49 242.4Z" fill="#48658A"/>
<path d="M171.21 207.29C170.982 205.232 170.32 203.245 169.27 201.46L170.99 213.63C170.99 213.63 170.99 213.56 170.99 213.52C171.306 211.459 171.38 209.368 171.21 207.29Z" fill="#41B298"/>
<path d="M153.97 195C147.02 195.83 142.97 199.37 141.23 203.87L142.53 218.32C142.93 219.24 143.38 220.17 143.88 221.12C144.12 221.58 144.38 222.04 144.65 222.51C148.395 228.927 153.382 234.533 159.32 239C164.126 233.217 167.683 226.503 169.77 219.28L166.87 198.46C163.87 195.8 159.58 194.34 153.97 195ZM162.57 208.73C162.818 210.444 162.382 212.186 161.357 213.582C160.332 214.977 158.799 215.914 157.09 216.19C153.09 217.13 149.95 213.93 149.67 210.37C149.39 206.81 151.55 203.53 155.45 203.29C157.113 203.084 158.79 203.539 160.121 204.556C161.452 205.573 162.331 207.072 162.57 208.73Z" fill="#41B298"/>
<path d="M128.87 235.78L135.87 257.43L143.87 255L143.35 249.16L138.16 232.64L128.87 235.78ZM136.77 255.42L130.87 236.73L137.11 234.65L142.96 253.65L136.77 255.42Z" fill="#48658A"/>
<path d="M135.94 224.96L140.99 223.54L140.84 221.97L135.41 223.49L135.94 224.96Z" fill="#48658A"/>
<path d="M143.87 221.12L142.79 221.42L142.93 222.99L144.64 222.51C144.38 222 144.12 221.58 143.87 221.12Z" fill="#48658A"/>
<path d="M127.18 227.45L135.94 224.96L126.46 200.9L110.53 204.3L106.98 194.9C106.47 195.49 105.98 196.06 105.36 196.6L107.04 219L121.59 215.15L127.18 227.45Z" fill="#48658A"/>
<path d="M105.07 219.52L104.07 206.1C103.305 211.038 102.172 215.911 100.68 220.68L105.07 219.52Z" fill="#48658A"/>
<path d="M122.35 246.25L115.44 224.25L107.63 226.92L108.1 233.17L113.2 249.04L122.35 246.25ZM114.5 226.25L120.34 245.25L114.14 246.98L108.25 228.29L114.5 226.25Z" fill="#48658A"/>
<path d="M141.06 98.0898C141.38 106.09 134.31 111.25 127.98 112.09C128.37 119.23 122.49 126.61 116.8 126.22C114.19 126.04 111.7 124.02 109.62 120.16C105.758 122.492 101.298 123.642 96.7899 123.47C94.8392 123.347 92.9307 122.848 91.1699 122C80.5099 121.58 76.2899 117.12 70.2499 109.09C69.4899 108.09 68.7999 107.01 68.1499 105.97L62.1499 110.28L64.3699 113.56C64.9237 116.632 65.6889 119.663 66.6599 122.63C66.8332 123.17 67.0132 123.7 67.1999 124.22C71.9999 137.56 80.4799 146.22 90.6699 150.75C97.5399 145.14 105.53 141.48 113.52 140.97C118.74 140.57 120.72 142.4 120.52 146.2C120.29 150.34 113.63 151.72 108.71 153.2C107.663 153.54 106.641 153.951 105.65 154.43C107.543 154.565 109.443 154.595 111.34 154.52C116.386 154.301 121.381 153.423 126.2 151.91C141.38 147.27 151.05 134.57 152.58 122.14C152.66 121.47 152.72 120.8 152.75 120.14C153.087 115.735 152.167 111.325 150.098 107.422C148.029 103.519 144.895 100.283 141.06 98.0898Z" fill="#EC682E"/>
<path d="M126.52 110.79C126.17 110.79 125.84 110.79 125.52 110.79C124.341 110.756 123.185 110.45 122.144 109.894C121.103 109.339 120.205 108.55 119.52 107.59L118.88 107.76L118.46 107.87C117.46 111.99 113.88 116.04 109.35 118.77C105.618 121.103 101.267 122.25 96.8699 122.06C94.6338 121.958 92.4641 121.268 90.5799 120.06C87.5799 118.06 85.9299 114.66 86.8999 109.93L85.5199 109.84C84.3799 115.19 86.5199 119.84 91.1599 122.06C92.9235 122.895 94.8319 123.38 96.7799 123.49C101.288 123.663 105.748 122.512 109.61 120.18C110.063 119.92 110.503 119.65 110.93 119.37C114.93 116.75 118.06 113.15 119.33 109.37C120.909 111.074 123.09 112.096 125.41 112.22C125.8 112.22 126.2 112.22 126.6 112.22C127.058 112.208 127.516 112.171 127.97 112.11C134.3 111.29 141.37 106.11 141.05 98.11C140.71 97.9 140.35 97.7 139.98 97.5C140.42 105.75 132.64 110.66 126.52 110.79Z" fill="#BE6035"/>
<path d="M118.77 107.53C114.15 103.73 110.33 103.47 107.47 104.67C98.1498 108.56 92.9898 112.74 86.9098 109.89C85.9098 114.62 87.6398 118.03 90.5898 120.02C92.474 121.228 94.6437 121.918 96.8798 122.02C101.255 122.19 105.58 121.036 109.29 118.71C113.82 115.98 117.35 111.93 118.4 107.81L118.82 107.7L119.46 107.53C120.145 108.49 121.043 109.279 122.084 109.834C123.125 110.389 124.281 110.696 125.46 110.73C125.79 110.73 126.12 110.73 126.46 110.73C132.58 110.6 140.36 105.73 139.93 97.4198C139.8 94.2698 136.88 91.1898 134.77 91.4198C134.812 91.8476 134.754 92.2795 134.599 92.6807C134.445 93.0818 134.198 93.4412 133.88 93.7298C130.5 97.3298 118.49 98.7298 118.77 107.53Z" fill="#EC682E"/>
<path d="M91.1699 122C86.5599 119.75 84.3899 115.13 85.5299 109.78L86.9099 109.87C92.9899 112.72 98.1499 108.54 107.47 104.65C110.33 103.45 114.15 103.71 118.77 107.51C118.49 98.7099 130.5 97.3099 133.94 93.7499C133.513 91.137 132.335 88.7048 130.55 86.7499C128.934 88.6671 126.825 90.1058 124.45 90.9099C126.45 96.2499 122.68 100.83 116.81 100.43L116.95 98.3499C121.11 98.6299 124.1 95.6999 122.62 91.7699C122.582 91.6964 122.539 91.6261 122.49 91.5599C122.232 91.1194 121.857 90.7585 121.407 90.5168C120.957 90.2751 120.45 90.162 119.94 90.1899C116.82 89.9799 111.29 94.4799 109.13 90.4999L110.61 89.2099C110.833 89.5907 111.189 89.8757 111.61 90.0099C110.812 88.8132 110.211 87.4965 109.83 86.1099C108.72 85.1099 106.56 85.6599 105.83 87.8399H105.76C106.65 93.7099 103.7 97.8399 95.5299 101.1C87.4499 103.6 82.0099 102.55 79.6699 97.7499L68.1499 106C68.7999 107 69.4899 108.08 70.2499 109.12C76.2899 117.14 80.5099 121.6 91.1699 122Z" fill="#FAE5DA"/>
<path d="M116.87 124.81C121.87 125.15 126.87 118.81 126.59 112.18C126.19 112.18 125.79 112.18 125.4 112.18C123.08 112.056 120.899 111.034 119.32 109.33C118.05 113.13 114.89 116.73 110.92 119.33C112.71 122.94 114.87 124.68 116.87 124.81Z" fill="white"/>
<path d="M113.17 84.8498C113.522 86.5049 114.399 88.0023 115.67 89.1198C116.935 88.5563 118.289 88.2179 119.67 88.1198C119.17 87.7445 118.774 87.2485 118.519 86.6783C118.264 86.1081 118.157 85.4824 118.21 84.8598C118.4 82.0898 122 80.2498 124.04 81.0798L122.74 84.8198L126.32 83.3298C126.599 83.8682 126.68 84.4876 126.55 85.0798C126.523 85.4872 126.435 85.8882 126.29 86.2698C129 84.3898 129.72 81.8398 128.78 77.9198C127.78 73.7398 124.92 73.1998 119.56 75.2098C114.2 77.2198 111.97 79.4198 112.97 84.0798C113.03 84.3198 113.1 84.5798 113.17 84.8498Z" fill="white"/>
<path d="M101.09 65.2298C73.2298 56.9998 54.2998 77.4798 65.7298 101.58L78.3499 92.6698C77.8199 86.8698 81.1998 83.2298 89.2598 80.4498C93.9898 78.8398 97.8998 78.7398 100.74 80.0698C102.19 80.7431 103.4 81.8418 104.21 83.2198C104.856 82.5325 105.683 82.0419 106.596 81.8048C107.509 81.5676 108.471 81.5937 109.37 81.8798C109.65 77.1398 112.74 73.4698 118.37 71.6298C119.725 71.1774 121.122 70.8592 122.54 70.6798C122.44 68.4771 121.772 66.3376 120.6 64.4698C116.93 57.5998 105.42 57.8698 101.09 65.2298ZM100.34 76.3298C98.0498 74.0798 92.8098 74.4198 90.2598 75.9898L89.0599 73.2398C93.0599 70.7298 99.6798 71.0298 102.58 74.1598L100.34 76.3298ZM117.2 69.1098C115.864 69.2266 114.588 69.7189 113.52 70.5298C112.471 71.4962 111.601 72.6405 110.95 73.9098L109.66 73.0798L108.28 72.1998C109.49 69.8398 111.43 66.8398 116.28 66.4798L116.64 67.5698L117.2 69.1098Z" fill="#FAE5DA"/>
<path d="M82.4399 94.4099C83.5599 98.8899 86.9599 100.11 94.3699 97.5099C94.8999 97.3099 95.3699 97.1199 95.8899 96.9199H95.8099C94.9097 96.9145 94.035 96.6201 93.3148 96.0799C92.5946 95.5398 92.0671 94.7826 91.8099 93.9199L96.8099 91.8199L93.5999 88.3999C94.5039 88.0713 95.458 87.9021 96.4199 87.8999C99.5399 88.1099 101.15 89.9599 100.99 92.3899C100.952 92.9853 100.837 93.5734 100.65 94.1399C102.54 92.3499 102.88 90.2299 102.04 87.2399C101.98 87.0599 101.93 86.8999 101.88 86.7299C101.07 84.2799 99.6999 82.9999 97.1999 82.8399C94.887 82.8365 92.5905 83.2288 90.4099 83.9999C82.9499 86.2799 80.9799 89.6299 82.4099 94.2499C82.4251 94.3021 82.4351 94.3557 82.4399 94.4099Z" fill="white"/>
<path d="M64.3798 113.58L62.1598 110.3L61.6698 109.88C59.2398 107.8 57.0698 106.12 54.7898 105.97C50.2898 105.66 47.0298 107.53 47.1098 111.36C47.2998 123.24 62.1098 130.8 66.6698 122.65C65.6988 119.683 64.9337 116.652 64.3798 113.58ZM58.2098 112.12C55.1298 111.21 52.9798 112.12 52.8198 114.54C52.8346 115.51 53.1478 116.451 53.7168 117.237C54.2858 118.022 55.083 118.614 55.9998 118.93L55.2198 120.27C52.8598 119.07 51.2898 116.52 51.4298 114.44C51.6398 111.32 54.9098 109.44 58.6198 111.1L58.2098 112.12Z" fill="#FAE5DA"/>
<path d="M46.4898 59.0898C45.4898 63.1998 49.4898 65.5599 50.5498 65.9799C48.0998 66.1599 45.2798 66.6599 42.5498 65.4398C41.1798 70.2198 45.8498 73.3198 48.5498 73.8598L49.9398 73.9498C48.9848 76.8511 48.315 79.8386 47.9398 82.8699C47.5198 89.9999 50.3298 97.6599 56.8698 105C57.7445 105.279 58.5784 105.672 59.3498 106.17L65.7798 101.63C54.2998 77.4798 73.2298 56.9999 101.09 65.2299C105.42 57.8699 116.93 57.5998 120.65 64.4698C123.19 62.8998 124.4 60.5498 124.77 54.9998C125.57 43.2198 114.52 31.6698 104.56 29.5998C101.14 28.6698 99.0398 28.8798 97.8798 30.5398C87.7798 45.8698 62.6398 41.7298 56.1898 59.7498L55.1898 58.9798C52.8698 58.1198 50.1798 61.0798 46.4898 59.0898Z" fill="#EC682E"/>
<path d="M72.5599 186.92C72.0099 196.92 77.5599 202.78 86.2199 203.26C95.3499 203.75 108.6 195.84 110.69 184.85C109.339 185.01 107.977 185.046 106.62 184.96L106.35 183.56C109.81 183.75 113.64 183.27 116.18 181.32L116.8 182.4C115.47 183.534 113.861 184.293 112.14 184.6C111.862 186.226 111.364 187.807 110.66 189.3C119.15 189.15 123.98 184.38 124.23 179.69C124.44 175.89 121.79 173.69 117.29 173.42C113.819 173.36 110.371 173.996 107.15 175.29L106.88 173.89C110.236 172.64 113.789 172 117.37 172C118.548 172.05 119.712 172.266 120.83 172.64C121.01 169.23 119.74 167.07 116.94 165.99C115.529 165.484 114.048 165.204 112.55 165.16C109.186 165.125 105.85 165.768 102.74 167.05L102.11 165.98C106 164.46 109.52 163.61 112.63 163.78C114.053 163.831 115.465 164.063 116.83 164.47C116.04 160.67 113.46 158.28 108.83 158.03C104.34 157.78 99.3899 159.59 95.8299 161.47L95.2099 160.05C96.1516 159.563 97.1198 159.129 98.1099 158.75C100.74 155.13 105.32 152.97 108.11 152.1C113.04 150.63 118.64 149.56 119.17 146.1C119.34 142.99 118.37 141.89 113.49 142.32C93.6299 143.71 73.7499 165.15 72.5599 186.92Z" fill="#FAE5DA"/>
<path d="M399.64 242.71H399.48C397.568 241.673 395.491 240.975 393.34 240.65C387.23 239.95 381.64 243.78 378.46 250.65C377.258 253.442 376.255 256.316 375.46 259.25L375 261.07C373.25 267.91 371.95 275.16 367.54 285.87C365.23 291.55 360.1 297.22 355.01 301.39C353.82 300.31 352.65 299.14 351.58 297.97C351.172 298.592 350.703 299.171 350.18 299.7C352.747 302.67 355.788 305.194 359.18 307.17C360.525 307.989 362.016 308.543 363.57 308.8C369.68 309.49 375.21 306.33 380.47 299.37C387.58 291.24 405.97 271.66 407.59 257.37C408.49 249.56 405.41 243.37 399.64 242.71ZM369.53 286.71C372.195 279.897 374.37 272.903 376.04 265.78C377.3 260.78 378.14 256.39 380.41 251.5C382.68 246.61 387 241.92 393.11 242.62C394.051 242.697 394.978 242.892 395.87 243.2C392.71 244.43 389.61 247.52 386.87 251.89C377.98 266.89 377.14 297.84 359.2 304.62C358.33 304.03 357.42 303.36 356.52 302.62C362.87 297.72 367.33 291.74 369.53 286.75V286.71ZM405.53 257.11C403.99 270.68 386.35 289.65 378.53 297.71C373.6 304.71 368.84 307.27 363.74 306.71C362.948 306.589 362.181 306.339 361.47 305.97C373.04 300.37 377.34 285.39 381.47 271.97C383.67 264.65 385.81 258.02 388.8 252.85C391.23 248.66 394.44 245.68 397.37 244.93C398.02 244.749 398.699 244.691 399.37 244.76C403.87 245.25 406.38 250 405.57 257.15L405.53 257.11Z" fill="black"/>
<path d="M236.66 307.06C235.279 304.119 234.319 300.999 233.81 297.79L235.17 297.95C236.53 310.14 264.57 353.95 270.6 358.38C272.447 358.928 274.377 359.144 276.3 359.02C278.742 358.842 281.144 358.306 283.43 357.43C294.7 353.91 301.68 335.91 312.81 328.78C313.633 328.243 314.496 327.768 315.39 327.36C310.63 307.12 304.39 289.74 297.22 276.28C287.62 258.28 276.42 247.28 265.15 245.99C260.216 245.53 255.254 245.459 250.31 245.78L250.88 244.39C255.686 244.105 260.507 244.189 265.3 244.64C276.78 245.94 288.06 256.73 297.75 274.57C301.95 275.66 306.94 276.5 310.54 276.26H310.88C314.01 279.02 316.83 281.4 319.62 284.13C326.77 290.79 332.98 296.65 342.22 300.13C346.47 301.99 349.83 299.62 352.22 294.05C355.72 282.52 361.52 270.97 369.22 262.74C369.96 261.95 370.73 261.19 371.5 260.47C354.92 225.17 301.7 206.59 263.5 209.92L263.33 208.57L253.52 132.28L252.05 131.95L236.53 149.76L211.75 151.6C223.14 139.79 235.16 124.73 240.17 113.76C240.619 112.154 240.681 110.464 240.35 108.83C245.165 106.467 249.579 103.363 253.43 99.6299C259.02 95.3899 272.07 88.3899 267.69 83.4899C265.63 81.2399 260.89 83.1399 257.95 85.0499L264.87 79.6599C269.76 75.2799 271.46 72.3799 269.48 69.7899C268.876 69.1399 268.084 68.6943 267.215 68.5151C266.345 68.3358 265.442 68.4319 264.63 68.7899C269.88 64.4799 268.69 59.8799 264.88 59.0799C262.88 58.6699 260.88 59.4999 257.64 61.9899C257.684 61.0152 257.363 60.0589 256.74 59.3081C256.117 58.5572 255.236 58.0658 254.27 57.9299C251.85 57.4199 249.07 58.6299 244.73 62.0599L227.24 76.4299C228.45 69.5099 227.36 64.5099 223.78 63.7499C221.01 63.1699 219.34 64.2599 218.83 66.6799C216.05 77.0599 211.89 81.3099 209.63 86.5099C201.11 88.0399 189.14 94.2899 177.63 101.71L175.5 103.1C167.587 108.312 159.991 113.989 152.75 120.1C152.75 120.77 152.66 121.44 152.58 122.1C166.78 109.61 193.69 90.9299 209.1 87.8099C208.831 88.561 208.614 89.3294 208.45 90.1099C207.875 92.738 207.986 95.4697 208.773 98.0424C209.559 100.615 210.994 102.942 212.94 104.8C216.112 108.035 220.162 110.271 224.59 111.23C229.02 112.16 233.98 111.55 239.22 109.31C239.417 110.671 239.322 112.059 238.94 113.38C233.94 124.28 221.31 139.81 209.62 151.74L197.28 152.66L165.28 180.35L137.15 168L122.15 171.43C121.94 168.07 120.38 166.18 118.34 165.13C117.51 160.13 114.58 156.99 108.83 156.68C108.23 156.68 107.6 156.68 106.96 156.68C104.728 156.853 102.525 157.297 100.4 158C101.946 156.548 103.72 155.359 105.65 154.48C106.641 154.001 107.663 153.59 108.71 153.25C113.63 151.79 120.29 150.41 120.52 146.25C120.73 142.45 118.75 140.62 113.52 141.02C105.52 141.53 97.5199 145.19 90.6699 150.8C88.3131 152.723 86.1221 154.84 84.1199 157.13C80.5299 156.43 76.1799 154.13 71.0599 149.02L67.1899 124.28C67.0032 123.76 66.8232 123.23 66.6499 122.69C62.0799 130.84 47.2799 123.28 47.0899 111.4C47.0099 107.57 50.2699 105.7 54.7699 106.01C57.0499 106.16 59.2199 107.84 61.6499 109.92L62.1399 110.34L68.1399 106.03L79.6499 97.7599C81.9899 102.56 87.4299 103.61 95.5099 101.11C103.68 97.8499 106.63 93.7199 105.74 87.8499H105.81C106.52 85.6699 108.68 85.1499 109.81 86.1199C110.191 87.5066 110.792 88.8232 111.59 90.0199C111.169 89.8857 110.813 89.6008 110.59 89.2199L109.11 90.5099C111.27 94.5099 116.8 89.9899 119.92 90.1999C120.43 90.1721 120.937 90.2852 121.387 90.5268C121.837 90.7685 122.212 91.1294 122.47 91.5699C122.519 91.6362 122.562 91.7064 122.6 91.7799C124.08 95.7099 121.09 98.6399 116.93 98.3599L116.79 100.44C122.66 100.84 126.45 96.2599 124.43 90.9199C126.805 90.1158 128.914 88.6772 130.53 86.7599C132.315 88.7148 133.493 91.1471 133.92 93.7599C134.238 93.4713 134.485 93.1119 134.639 92.7107C134.794 92.3096 134.852 91.8777 134.81 91.4499C134.157 89.22 132.973 87.1817 131.36 85.5099C132.643 83.0264 132.97 80.1586 132.28 77.4499C131.11 72.6199 128.18 70.5099 123.94 70.5899C123.865 68.6058 123.317 66.6684 122.34 64.9399C124.88 63.3699 125.9 58.5599 126.14 55.0999C126.99 42.6199 115.28 30.3299 104.63 28.2099C101.56 27.3099 98.7599 27.4699 96.8699 29.7699C92.5799 36.4499 84.7199 39.3999 76.8699 42.3499C67.9499 45.5699 58.6599 49.1199 55.1999 58.9999L56.1999 59.7699C62.6499 41.7699 87.7899 45.8899 97.8899 30.5599C99.0499 28.8999 101.15 28.6899 104.57 29.6199C114.57 31.6899 125.57 43.2399 124.78 55.0199C124.41 60.5699 123.2 62.9199 120.66 64.4899C121.832 66.3577 122.5 68.4972 122.6 70.6999C121.182 70.8793 119.785 71.1975 118.43 71.6499C112.75 73.4899 109.66 77.1599 109.43 81.8999C108.531 81.6138 107.569 81.5877 106.656 81.8249C105.743 82.062 104.916 82.5525 104.27 83.2399C103.46 81.8619 102.25 80.7632 100.8 80.0899C97.9599 78.7599 94.0499 78.8599 89.3199 80.4699C81.1999 83.2299 77.8699 86.8699 78.3499 92.6699L65.7299 101.58L59.2999 106.12C58.5415 105.644 57.7247 105.267 56.8699 105C50.3799 97.7099 47.5699 89.9999 48.0599 82.9199C48.4351 79.8887 49.1049 76.9012 50.0599 73.9999L48.6699 73.9099C47.6439 76.7911 46.9723 79.7865 46.6699 82.8299C46.1699 90.2499 48.6699 97.8299 54.8099 104.62C49.3299 104.29 45.7399 106.83 45.8099 111.32C45.8699 123.61 59.8999 131.43 66.3599 125.32L68.5899 140.16C61.2554 143.338 54.2376 147.202 47.6299 151.7L46.1399 152.7C44.8065 153.627 43.4965 154.58 42.2099 155.56L37.4699 152.56L35.9599 154.16L38.6599 158.44C15.8699 177.11 0.979873 202.53 0.869873 226.26C0.929873 246.9 11.8699 262.26 30.8699 267.84C40.7099 270.84 53.1799 269.84 65.3199 264.53H65.3799C66.0799 264.22 66.7899 263.91 67.4899 263.53C76.6399 278.65 99.5599 300.75 118.03 302.85C118.868 302.93 119.712 302.93 120.55 302.85C121.09 302.79 121.64 302.73 122.22 302.62C149.25 332.84 215.44 327.18 236.66 307.06ZM268.58 70.6799C270.03 72.4299 268.33 75.3199 260 82.2499L249.81 89.9999C249.005 88.3169 248.045 86.7131 246.94 85.2099L259.12 74.4599C264.43 69.8099 266.46 68.7799 268.58 70.6799ZM264.58 60.4499C267 60.9599 267.88 63.6699 265.14 66.3499C263.25 68.4699 261 70.5299 258.77 72.5899L245.97 83.9999C244.475 82.1825 242.7 80.616 240.71 79.3599L254.2 66.9299C255.01 66.1799 255.75 65.4999 256.45 64.9299C260.36 61.3799 262.54 59.9999 264.6 60.4499H264.58ZM224.87 109.89C220.643 109.013 216.807 106.809 213.92 103.6C212.158 101.95 210.858 99.8694 210.148 97.563C209.438 95.2566 209.342 92.8047 209.87 90.4499C210.544 87.6177 211.72 84.9288 213.34 82.5099C215.61 78.6499 218.29 74.5099 220.24 66.9699C220.61 65.2399 221.79 64.7699 223.52 65.1399C226.3 65.7299 227.07 70.5799 225.61 77.5099L225.54 77.8499C224.98 80.1579 224.258 82.4235 223.38 84.6299L224.77 84.9199C225.593 82.9482 226.262 80.9154 226.77 78.8399L245.99 62.9999C249.49 60.1299 252.28 58.8999 253.99 59.2699C254.443 59.3244 254.875 59.4949 255.244 59.7648C255.613 60.0348 255.906 60.3951 256.094 60.8111C256.283 61.2271 256.362 61.6847 256.323 62.1399C256.283 62.5951 256.127 63.0325 255.87 63.4099C254.99 64.1499 254.02 64.9899 252.96 65.9299L239.29 78.5399C238.9 78.3399 238.52 78.1499 238.13 77.9899L237.87 79.3699C240.635 80.6348 243.041 82.5699 244.87 84.9999C246.427 86.9652 247.705 89.1356 248.67 91.4499L250.05 91.7499L250.47 91.4699L255.64 87.4699C259.84 84.7399 265.41 82.2999 266.78 84.3999C269.23 88.1699 259.88 93.0599 252.19 98.6599C243.23 106.89 233.87 111.79 224.87 109.89ZM119.57 75.1999C124.93 73.1999 127.79 73.7299 128.79 77.9099C129.73 81.8299 129.01 84.3799 126.3 86.2599C126.445 85.8783 126.533 85.4773 126.56 85.0699C126.69 84.4777 126.609 83.8583 126.33 83.3199L122.75 84.8099L124.05 81.0699C122.05 80.2399 118.41 82.0699 118.22 84.8499C118.167 85.4725 118.274 86.0982 118.529 86.6684C118.784 87.2386 119.18 87.7346 119.68 88.1099C118.299 88.208 116.945 88.5464 115.68 89.1099C114.409 87.9924 113.532 86.495 113.18 84.8399C113.11 84.5699 113.04 84.3099 112.99 84.0599C111.98 79.4099 114.18 77.2099 119.57 75.1999ZM90.4099 83.9999C92.5899 83.2255 94.8864 82.8298 97.1999 82.8299C99.6999 82.9899 101.07 84.2699 101.88 86.7199C101.88 86.8899 101.98 87.0499 102.04 87.2299C102.88 90.2299 102.54 92.3399 100.65 94.1299C100.837 93.5635 100.952 92.9754 100.99 92.3799C101.15 89.9499 99.5399 88.0999 96.4199 87.8899C95.458 87.8921 94.5039 88.0613 93.5999 88.3899L96.8699 91.7599L91.8699 93.8599C92.1271 94.7226 92.6546 95.4799 93.3748 96.02C94.095 96.5601 94.9697 96.8546 95.8699 96.8599C95.3899 97.0599 94.8699 97.2499 94.3499 97.4499C86.9399 100.05 83.5399 98.8299 82.4199 94.3499C82.4244 94.3 82.4244 94.2498 82.4199 94.1999C80.9799 89.6399 82.9499 86.2899 90.4099 83.9999ZM235.87 151.5L239.5 170.05L239.8 171.6L244.15 193.81L249.87 223.27L251.78 222.9H251.87L237.71 150.56L252.47 133.62L262.47 212.62L248.73 245.11H248.34L235.34 244.2V244.15L226.19 243.48L221.63 228.63L213.72 202.87L207.53 182.69L207.07 181.2L198.8 154.27L235.87 151.5ZM196.87 155.05L205.1 181.84L205.55 183.32L211.73 203.43L219.59 229.06L224.29 244.37L201.37 270.59L177.43 259.44L171.18 215L170.99 213.6L169.27 201.43L166.45 181.35L196.87 155.05ZM164.45 181.47L166.84 198.47L169.78 219.33L175.4 259.28L155.07 270.4L146.67 264.6L142.94 223L142.8 221.43L142.53 218.33L141.23 203.88L138.23 170.08L164.45 181.47ZM136.17 169.62L140.87 222L141.01 223.57L143.31 249.19L143.83 255.03L144.64 264.12L105.87 262.25L91.8699 240C95.607 233.96 98.5575 227.467 100.65 220.68C102.142 215.911 103.275 211.038 104.04 206.1L105.04 219.52L107.57 253.27L109.57 253.13L108.08 233.18L107.61 226.93L107.02 218.99L105.34 196.6C105.91 196.06 106.45 195.49 106.96 194.9C108.105 193.602 109.111 192.188 109.96 190.68C119.2 190.77 125.3 185.59 125.62 179.76C125.765 178.455 125.513 177.137 124.898 175.978C124.282 174.818 123.332 173.871 122.17 173.26C122.17 173.11 122.17 172.97 122.17 172.82L136.17 169.62ZM113.46 142.37C118.34 141.94 119.31 143.04 119.14 146.15C118.61 149.59 113.01 150.66 108.08 152.15C105.28 153.02 100.7 155.15 98.0799 158.8C97.0897 159.179 96.1215 159.613 95.1799 160.1L95.7999 161.52C99.3599 159.64 104.31 157.83 108.8 158.08C113.48 158.33 116.06 160.72 116.8 164.52C115.435 164.113 114.023 163.881 112.6 163.83C109.49 163.66 105.97 164.51 102.08 166.03L102.71 167.1C105.82 165.818 109.156 165.175 112.52 165.21C114.018 165.254 115.499 165.534 116.91 166.04C119.71 167.12 120.98 169.28 120.8 172.69C119.682 172.316 118.517 172.101 117.34 172.05C113.768 172.036 110.223 172.659 106.87 173.89L107.14 175.29C110.361 173.996 113.809 173.36 117.28 173.42C121.78 173.67 124.43 175.89 124.22 179.69C123.97 184.38 119.14 189.15 110.65 189.3C111.354 187.808 111.852 186.226 112.13 184.6C113.851 184.294 115.46 183.534 116.79 182.4L116.17 181.32C113.63 183.32 109.8 183.75 106.34 183.56L106.61 184.96C107.967 185.047 109.329 185.01 110.68 184.85C108.59 195.85 95.3399 203.75 86.2099 203.26C77.5699 202.78 71.9999 196.93 72.5499 186.92C73.7499 165.15 93.6299 143.71 113.45 142.37H113.46ZM68.7499 141.64L69.9399 149.56C74.5499 154.17 78.9399 157.14 83.2799 158.09C81.4359 160.291 79.7642 162.632 78.2799 165.09L71.4799 157.75L46.6199 158.43L43.4499 156.43C51.2658 150.518 59.755 145.553 68.7399 141.64H68.7499ZM38.1799 154.64L46.2799 159.91L71.1399 159.22L77.6099 166.22C73.8921 172.511 71.6906 179.581 71.1799 186.87C71.1799 187.66 71.1799 188.42 71.1799 189.17C68.0499 190.54 65.1799 191.88 62.4499 193.23L38.1799 154.64ZM31.0199 266.48C13.0699 261 2.01987 246.33 2.21987 226.41C2.33987 202.8 17.0899 177.84 39.3799 159.58L61.0099 193.93C50.5777 199.085 41.1285 206.026 33.0899 214.44L33.9399 215.29C44.5099 204.72 54.2799 197.7 71.2499 190.47C72.0999 198.79 77.6499 204.17 86.1399 204.63C92.1399 204.96 98.7899 202.27 103.9 197.93C101.66 225.44 89.4799 251.21 64.8499 263.44C53.0199 268.59 40.8699 269.42 31.0199 266.48ZM118.18 301.48C100.34 299.48 77.5899 277.92 68.8199 262.85L68.7099 262.67C77.6699 257.431 85.2822 250.172 90.9399 241.47L91.3599 242.15L92.0499 243.25L104.87 263.56L145.72 265.63L154.72 271.88L165.14 266.43C155.44 285 129.22 302.76 118.18 301.5V301.48Z" fill="black"/>
<path d="M316.25 331.93C308.79 344.49 299.67 360.12 279.46 363.76C279.059 362.607 278.725 361.431 278.46 360.24C277.81 360.35 277.17 360.44 276.53 360.49C276.904 362.428 277.481 364.322 278.25 366.14C280.16 370.6 283.09 373.44 286.75 373.96C288.141 374.801 289.696 375.336 291.31 375.53C302.52 376.8 317.94 365.14 329.82 354.45C341.23 344.75 349.37 336.74 350.34 328.24C350.43 327.432 350.43 326.617 350.34 325.81C349.7 319.75 344.04 314.81 336.83 313.99C329.27 313.13 324.55 318.19 319.52 326.33C319.15 326.9 318.79 327.5 318.43 328.12C317.73 329.327 317.003 330.597 316.25 331.93ZM348.33 328C347.45 335.81 340.07 343.22 328.64 352.94C313.38 366.55 301.34 373.7 292.89 373.56C305.99 370.22 317.98 351.93 323.24 339.94C328.24 329.5 333.24 321.47 341.4 322.4C342.792 322.497 344.145 322.907 345.357 323.6C346.569 324.293 347.609 325.25 348.4 326.4C348.425 326.934 348.402 327.47 348.33 328ZM336.63 316C338.732 316.18 340.765 316.842 342.572 317.932C344.378 319.023 345.91 320.514 347.05 322.29C345.431 321.208 343.568 320.544 341.63 320.36C332.12 319.27 326.26 328.57 321.28 339.02C315.28 352.77 301.19 373.53 287.28 371.95C284.48 371.63 282.03 369.56 280.28 365.79C300.92 362.06 310.77 345.31 318.19 332.79C319.19 331.03 320.19 329.38 321.07 327.87C326.05 319.71 330.04 315.27 336.63 316Z" fill="black"/>
<path d="M116.87 124.81C114.87 124.68 112.69 122.94 110.87 119.33C110.443 119.61 110.003 119.88 109.55 120.14C111.63 124 114.12 126.02 116.73 126.2C122.42 126.59 128.3 119.2 127.91 112.07C127.455 112.131 126.998 112.168 126.54 112.18C126.94 118.85 121.87 125.15 116.87 124.81Z" fill="black"/>
<path d="M108.28 72.2L109.66 73.08L110.95 73.91C111.601 72.6406 112.471 71.4964 113.52 70.53C114.588 69.719 115.864 69.2268 117.2 69.11L116.69 67.57L116.33 66.48C111.43 66.84 109.49 69.84 108.28 72.2Z" fill="black"/>
<path d="M89.0598 73.2398L90.2598 75.9998C92.8098 74.4298 98.0498 74.0898 100.34 76.3398L102.58 74.1698C99.6798 70.9998 93.0598 70.7298 89.0598 73.2398Z" fill="black"/>
<path d="M51.4298 114.44C51.2898 116.52 52.8598 119.07 55.2198 120.27L55.9998 118.93C55.0923 118.605 54.3059 118.011 53.7463 117.226C53.1868 116.441 52.8809 115.504 52.8698 114.54C53.0298 112.11 55.1798 111.21 58.2598 112.12L58.6698 111.12C54.8698 109.46 51.6398 111.32 51.4298 114.44Z" fill="black"/>
</g>
<defs>
<clipPath id="clip0">
<rect width="406.89" height="375.62" fill="white" transform="translate(0.869873)"/>
</clipPath>
</defs>
</svg>
